<?xml version="1.0" encoding="UTF-8"?>
<!DOCTYPE svg PUBLIC "-//W3C//DTD SVG 1.1//EN" "http://www.w3.org/Graphics/SVG/1.1/DTD/svg11.dtd">
<svg xmlns="http://www.w3.org/2000/svg" version="1.1" width="6000px" height="3375px" style="shape-rendering:geometricPrecision; text-rendering:geometricPrecision; image-rendering:optimizeQuality; fill-rule:evenodd; clip-rule:evenodd" xmlns:xlink="http://www.w3.org/1999/xlink">
<g><path style="opacity:0.239" fill="#f5ae52" d="M 2954.5,674.5 C 3235.81,666.739 3480.14,756.572 3687.5,944C 3859,1105.46 3963.5,1303.3 4001,1537.5C 4038.91,1818.55 3973.91,2072.55 3806,2299.5C 3645.89,2505.33 3437.06,2633.49 3179.5,2684C 2927.9,2726.54 2692.57,2682.88 2473.5,2553C 2268.23,2424.7 2124.4,2246.54 2042,2018.5C 1979.95,1834.63 1969.95,1647.97 2012,1458.5C 2072.69,1212.45 2204.52,1014.62 2407.5,865C 2571.05,748.756 2753.38,685.256 2954.5,674.5 Z M 2979.5,1203.5 C 3095.86,1200.27 3187.7,1245.6 3255,1339.5C 3306.05,1419.2 3319.39,1504.86 3295,1596.5C 3276.15,1658.07 3241.99,1709.23 3192.5,1750C 3215.04,1867.06 3237.2,1984.22 3259,2101.5C 3260.38,2107.25 3262.04,2112.92 3264,2118.5C 3266.78,2144.78 3255.62,2161.94 3230.5,2170C 3077.5,2170.67 2924.5,2170.67 2771.5,2170C 2749.18,2164.4 2737.18,2150.06 2735.5,2127C 2758.72,2001.07 2782.39,1875.24 2806.5,1749.5C 2731.31,1686.94 2692.98,1606.44 2691.5,1508C 2696.22,1395.42 2745.56,1308.76 2839.5,1248C 2882.77,1222.19 2929.44,1207.35 2979.5,1203.5 Z"/></g>
</svg>
